<svg xmlns="http://www.w3.org/2000/svg" width="650.824" height="175" viewBox="0 0 650.824 175"><path d="M457.933,0H50.035S38.084.606,38.095,12.656,50.035,25,50.035,25H99.443s10.359.715,11.519,11.188l.068,1.524s17.525,12.08,17.582,0,11.623-12.589,11.623-12.589H156.1s11.649,1.118,11.431,12.459S156.1,49.608,156.1,49.608H139.857s-10.511,0-11.245-11.894-17.582,0-17.582,0c.04,11.331-11.6,12.362-11.6,12.362H43.239s-12.192.509-12.2,12.659,12.2,12.442,12.2,12.442h86.82s12.374.8,12.043,12.763-12.043,12.268-12.043,12.268l-54.144-.043H57.582S45.126,99.8,45.043,112.58s12.538,12.745,12.538,12.745H130.34s4.885.335,7.945,3.458a13.076,13.076,0,0,1,3.817,9.23c-.015,0,8.767,2.247,9.371-1.544a12.273,12.273,0,0,1,2.41-6.052c.376-.463,3.012-4.614,10.2-4.9s12.722,6.262,12.639,12.512-5.928,12.579-12.94,12.026a12.045,12.045,0,0,1-11.813-8.73,16.5,16.5,0,0,1-.494-4.86c0-.018-9.371,1.544-9.371,1.544-.782,11.74-11.761,12.309-11.761,12.309H11.977S.149,150.161,0,162.352,12.582,175,12.582,175H457.933Z" fill="#fff"/><rect width="337" height="175" transform="translate(313.824)" fill="#fff"/><rect width="25.282" height="25" rx="12.5" transform="matrix(-1, -0.017, 0.017, -1, 35.53, 125.437)" fill="#fff"/></svg>