<svg xmlns="http://www.w3.org/2000/svg" xmlns:xlink="http://www.w3.org/1999/xlink" width="300" height="150" viewBox="0 0 300 150"><defs><linearGradient id="a" x1="0.16" y1="0.057" x2="0.917" y2="0.889" gradientUnits="objectBoundingBox"><stop offset="0" stop-color="#0d4ec9"/><stop offset="1" stop-color="#ff00ce"/></linearGradient><filter id="b"><feOffset dx="-2" dy="2" input="SourceAlpha"/><feGaussianBlur stdDeviation="0.5" result="c"/><feFlood flood-opacity="0.424" result="d"/><feComposite operator="out" in="SourceGraphic" in2="c"/><feComposite operator="in" in="d"/><feComposite operator="in" in2="SourceGraphic"/></filter><clipPath id="f"><rect width="300" height="150"/></clipPath></defs><g id="e" clip-path="url(#f)"><rect width="300" height="150" fill="#fff"/><g transform="translate(40 22.595)"><g transform="translate(-122 -70.908)"><rect width="300" height="150" transform="translate(82 48.313)" fill="url(#a)"/><g transform="translate(199.762 100.296)"><path d="M10.921,14.386a2.781,2.781,0,1,0,1.968.82A2.781,2.781,0,0,0,10.921,14.386Z" transform="translate(10.712 1.228)" fill="none"/><g data-type="innerShadowGroup"><path d="M64.749,28.745C61.7,16.01,58.475,9.247,52.014,7.332a12.84,12.84,0,0,0-3.7-.575c-3.972,0-6.749,2.115-13.827,2.115S24.626,6.757,20.656,6.757a12.694,12.694,0,0,0-3.7.575C10.5,9.247,7.275,16.024,4.225,28.745S1.736,50.676,5.336,52.388a4.2,4.2,0,0,0,1.8.4c3.122,0,6.49-3.425,9.742-7.483,3.7-4.62,4.62-4.748,15.872-4.748h3.5c11.235,0,12.174.115,15.872,4.748,3.238,4.058,6.62,7.483,9.742,7.483a4.246,4.246,0,0,0,1.8-.4C67.238,50.661,67.785,41.466,64.749,28.745ZM17.1,30.861a5.7,5.7,0,1,1,5.641-5.7,5.7,5.7,0,0,1-5.641,5.7Zm24.88-2.806a2.893,2.893,0,1,1,2.893-2.893,2.893,2.893,0,0,1-2.893,2.893ZM48.3,34.372a2.885,2.885,0,1,1,2.893-2.878A2.885,2.885,0,0,1,48.3,34.372Zm0-12.635a2.893,2.893,0,1,1,2.893-2.893A2.893,2.893,0,0,1,48.3,21.737Zm6.317,6.317a2.893,2.893,0,1,1,2.893-2.893,2.893,2.893,0,0,1-2.893,2.893Z" transform="translate(-2.247 -6.757)" fill="#eaeaea"/><g transform="matrix(1, 0, 0, 1, -117.76, -51.98)" filter="url(#b)"><path d="M64.749,28.745C61.7,16.01,58.475,9.247,52.014,7.332a12.84,12.84,0,0,0-3.7-.575c-3.972,0-6.749,2.115-13.827,2.115S24.626,6.757,20.656,6.757a12.694,12.694,0,0,0-3.7.575C10.5,9.247,7.275,16.024,4.225,28.745S1.736,50.676,5.336,52.388a4.2,4.2,0,0,0,1.8.4c3.122,0,6.49-3.425,9.742-7.483,3.7-4.62,4.62-4.748,15.872-4.748h3.5c11.235,0,12.174.115,15.872,4.748,3.238,4.058,6.62,7.483,9.742,7.483a4.246,4.246,0,0,0,1.8-.4C67.238,50.661,67.785,41.466,64.749,28.745ZM17.1,30.861a5.7,5.7,0,1,1,5.641-5.7,5.7,5.7,0,0,1-5.641,5.7Zm24.88-2.806a2.893,2.893,0,1,1,2.893-2.893,2.893,2.893,0,0,1-2.893,2.893ZM48.3,34.372a2.885,2.885,0,1,1,2.893-2.878A2.885,2.885,0,0,1,48.3,34.372Zm0-12.635a2.893,2.893,0,1,1,2.893-2.893A2.893,2.893,0,0,1,48.3,21.737Zm6.317,6.317a2.893,2.893,0,1,1,2.893-2.893,2.893,2.893,0,0,1-2.893,2.893Z" transform="translate(115.52 45.23)" fill="#fff"/></g></g></g></g></g></g></svg>