<svg xmlns="http://www.w3.org/2000/svg" xmlns:xlink="http://www.w3.org/1999/xlink" width="300" height="150" viewBox="0 0 300 150"><defs><filter id="a" x="117.069" y="20.909" width="108.33" height="59.797" filterUnits="userSpaceOnUse"><feOffset dx="22" dy="24" input="SourceAlpha"/><feGaussianBlur result="b"/><feFlood flood-opacity="0.161"/><feComposite operator="in" in2="b"/><feComposite in="SourceGraphic"/></filter><filter id="c" x="136.039" y="60.76" width="80.267" height="49.615" filterUnits="userSpaceOnUse"><feOffset dx="22" dy="24" input="SourceAlpha"/><feGaussianBlur result="d"/><feFlood flood-opacity="0.161"/><feComposite operator="in" in2="d"/><feComposite in="SourceGraphic"/></filter><filter id="e" x="103.951" y="84.364" width="109.606" height="68.726" filterUnits="userSpaceOnUse"><feOffset dx="22" dy="24" input="SourceAlpha"/><feGaussianBlur result="f"/><feFlood flood-opacity="0.161"/><feComposite operator="in" in2="f"/><feComposite in="SourceGraphic"/></filter><clipPath id="h"><rect width="300" height="150"/></clipPath></defs><g id="g" clip-path="url(#h)"><rect width="300" height="150" fill="#fff"/><g transform="translate(-1 -28)"><rect width="300" height="150" transform="translate(1 28)" fill="#30aabc"/><g transform="translate(-49.049 52.217)"><g transform="translate(167.117 -3.308)"><g transform="matrix(1, 0, 0, 1, -117.07, -20.91)" filter="url(#a)"><path d="M192.4-3.282,256.87,3.34c3.849.4,6.3,4.353,5.477,8.84l-2.363,12.864c-.823,4.487-4.614,7.8-8.463,7.408L177.29,24.929c-3.85-.4,3.457-3.457,4.28-7.943l2.365-12.863C184.762-.361,188.551-3.677,192.4-3.282Z" transform="translate(-59.11 24.22)" fill="#fff"/></g><g transform="translate(15.696 5.283) rotate(6.024)" fill="none" stroke="#707070" stroke-width="0.916"><rect width="49.565" height="1.351" stroke="none"/><rect x="0.458" y="0.458" width="48.649" height="0.435" fill="none"/></g><g transform="translate(14.937 10.514) rotate(6.024)" fill="none" stroke="#707070" stroke-width="0.916"><rect width="21.498" height="1.351" stroke="none"/><rect x="0.458" y="0.458" width="20.582" height="0.435" fill="none"/></g><g transform="translate(40.052 13.511) rotate(6)" fill="none" stroke="#707070" stroke-width="0.916"><rect width="38.219" height="1.351" stroke="none"/><rect x="0.458" y="0.458" width="37.303" height="0.435" fill="none"/></g><g transform="translate(13.99 15.6) rotate(6.024)" fill="none" stroke="#707070" stroke-width="0.916"><rect width="65.091" height="1.351" stroke="none"/><rect x="0.458" y="0.458" width="64.175" height="0.435" fill="none"/></g><g transform="translate(13.612 20.448) rotate(6.024)" fill="none" stroke="#707070" stroke-width="0.916"><rect width="8.361" height="1.351" stroke="none"/><rect x="0.458" y="0.458" width="7.445" height="0.435" fill="none"/></g><g transform="translate(26.945 21.956) rotate(6.024)" fill="none" stroke="#707070" stroke-width="0.916"><rect width="22.095" height="1.351" stroke="none"/><rect x="0.458" y="0.458" width="21.179" height="0.435" fill="none"/></g><g transform="translate(54.459 24.462) rotate(6.024)" fill="none" stroke="#707070" stroke-width="0.916"><rect width="22.693" height="1.351" stroke="none"/><rect x="0.458" y="0.458" width="21.777" height="0.435" fill="none"/></g><g transform="translate(68.629 11.106) rotate(6.024)" fill="none" stroke="#707070" stroke-width="0.916"><rect width="10.152" height="1.351" stroke="none"/><rect x="0.458" y="0.458" width="9.236" height="0.435" fill="none"/></g></g><g transform="translate(186.088 36.543)"><g transform="matrix(1, 0, 0, 1, -136.04, -60.76)" filter="url(#c)"><path d="M257.561,58.97,211.28,54.213c-2.692-.344-5.391,1.926-6.03,5.073l-1.626,8.846c-.52,3.159,1.26,5.889,3.977,6.1l53.262,5.543c2.764.284-1.516-2.777-.949-5.863l1.626-8.845C262.058,61.909,260.278,59.178,257.561,58.97Z" transform="translate(-67.49 6.58)" fill="#fff"/></g><g transform="translate(7.349 9.733)"><g transform="translate(26.454 2.686) rotate(6.024)" fill="none" stroke="#707070" stroke-width="0.916"><rect width="20.304" height="1.351" stroke="none"/><rect x="0.458" y="0.458" width="19.388" height="0.435" fill="none"/></g><g transform="translate(0.142 0) rotate(6.024)" fill="none" stroke="#707070" stroke-width="0.916"><rect width="22.095" height="1.351" stroke="none"/><rect x="0.458" y="0.458" width="21.179" height="0.435" fill="none"/></g></g><g transform="translate(6.428 14.068)"><g transform="translate(15.76 2.691) rotate(6.024)" fill="none" stroke="#707070" stroke-width="0.916"><rect width="31.052" height="1.351" stroke="none"/><rect x="0.458" y="0.458" width="30.136" height="0.435" fill="none"/></g><g transform="translate(0.142 0) rotate(6.024)" fill="none" stroke="#707070" stroke-width="0.916"><rect width="10.749" height="1.351" stroke="none"/><rect x="0.458" y="0.458" width="9.833" height="0.435" fill="none"/></g></g><g transform="translate(7.49 4.564) rotate(6.024)" fill="none" stroke="#707070" stroke-width="0.916"><rect width="47.774" height="1.351" stroke="none"/><rect x="0.458" y="0.458" width="46.858" height="0.435" fill="none"/></g></g><g transform="translate(154 60.147)"><g transform="matrix(1, 0, 0, 1, -103.95, -84.36)" filter="url(#e)"><path d="M175.1,88.246l64.47,6.625c3.849.4,6.1,5.471,5.021,11.335l-3.094,16.813c-1.078,5.865-5.073,10.3-8.921,9.9l-74.234-7.49c-3.85-.4,3.67-4.609,4.748-10.47l3.091-16.813C167.254,92.284,171.25,87.851,175.1,88.246Z" transform="translate(-53.3 -3.86)" fill="#fff"/></g><g transform="translate(16.397 11.221) rotate(6.024)" fill="none" stroke="#707070" stroke-width="0.916"><rect width="21.498" height="1.351" stroke="none"/><rect x="0.458" y="0.458" width="20.582" height="0.435" fill="none"/></g><g transform="translate(55.256 35.267) rotate(6.024)" fill="none" stroke="#707070" stroke-width="0.916"><rect width="21.498" height="1.351" stroke="none"/><rect x="0.458" y="0.458" width="20.582" height="0.435" fill="none"/></g><g transform="translate(42.563 14.842) rotate(6.024)" fill="none" stroke="#707070" stroke-width="0.916"><rect width="38.219" height="1.351" stroke="none"/><rect x="0.458" y="0.458" width="37.303" height="0.435" fill="none"/></g><g transform="translate(12.46 30.579) rotate(6.024)" fill="none" stroke="#707070" stroke-width="0.916"><rect width="38.219" height="1.351" stroke="none"/><rect x="0.458" y="0.458" width="37.303" height="0.435" fill="none"/></g><g transform="translate(14.691 17.743) rotate(6.024)" fill="none" stroke="#707070" stroke-width="0.916"><rect width="65.091" height="1.351" stroke="none"/><rect x="0.458" y="0.458" width="64.175" height="0.435" fill="none"/></g><g transform="translate(17.279 6.648) rotate(6.024)" fill="none" stroke="#707070" stroke-width="0.916"><rect width="65.091" height="1.351" stroke="none"/><rect x="0.458" y="0.458" width="64.175" height="0.435" fill="none"/></g><g transform="translate(13.925 24.781) rotate(6.024)" fill="none" stroke="#707070" stroke-width="0.916"><rect width="8.361" height="1.351" stroke="none"/><rect x="0.458" y="0.458" width="7.445" height="0.435" fill="none"/></g><g transform="translate(27.601 25.92) rotate(6.024)" fill="none" stroke="#707070" stroke-width="0.916"><rect width="22.095" height="1.351" stroke="none"/><rect x="0.458" y="0.458" width="21.179" height="0.435" fill="none"/></g><g transform="translate(55.256 28.72) rotate(6.024)" fill="none" stroke="#707070" stroke-width="0.916"><rect width="22.693" height="1.351" stroke="none"/><rect x="0.458" y="0.458" width="21.777" height="0.435" fill="none"/></g></g><path d="M169.316,28.134a6.7,6.7,0,0,0-3.807,7.431,4.463,4.463,0,0,0,6.125,3.5,6.7,6.7,0,0,0,3.807-7.431,4.461,4.461,0,0,0-6.126-3.5ZM171.41,38a3.6,3.6,0,0,1-4.938-2.821,5.4,5.4,0,0,1,3.069-5.993,3.6,3.6,0,0,1,4.938,2.821A5.409,5.409,0,0,1,171.41,38Zm1.407-4.174a8.269,8.269,0,0,1-2.054,1.126,7.294,7.294,0,0,1-2.177.55.317.317,0,0,0-.247.165.369.369,0,0,0-.033.314c.379.975,1.8,1.2,2.843.784a3.308,3.308,0,0,0,2.095-2.74.277.277,0,0,0-.15-.24.263.263,0,0,0-.274.043Zm-4.889.964a.235.235,0,0,0,.318-.067l1.377-1.692a.329.329,0,0,0,.068-.272.226.226,0,0,0-.165-.181L167.7,32.16a.272.272,0,0,0-.294.177.284.284,0,0,0,.07.342l.861.621-.485,1.152a.281.281,0,0,0,.075.341Zm4.875-1.871a.272.272,0,0,0,.294-.177.284.284,0,0,0-.07-.342l-.862-.624.485-1.152a.281.281,0,0,0-.072-.342.24.24,0,0,0-.319.067l-1.381,1.692a.329.329,0,0,0-.067.272.226.226,0,0,0,.165.181l1.826.424Z" transform="translate(-5.744 -9.539)" fill="#fff700"/><path d="M291.575,91.58a6.259,6.259,0,0,1-1.986-.775,6.517,6.517,0,0,1-1.7-1.332.238.238,0,0,0-.258-.074.35.35,0,0,0-.216.221,2.7,2.7,0,0,0,1.286,2.928,2.409,2.409,0,0,0,3.022-.466.377.377,0,0,0,.058-.314.252.252,0,0,0-.2-.189Zm-2.14-2.56a.165.165,0,0,0,.247-.022l1.1-1.288a.992.992,0,0,0,.235-.653.758.758,0,0,0-.256-.576.741.741,0,0,0-1.028.178l-.112.13-.1-.11a.7.7,0,0,0-1.023.019.992.992,0,0,0-.288.63.8.8,0,0,0,.2.611l1.03,1.083Zm4.006.5a.774.774,0,0,0-.545-.914l-.144-.03.042-.17a.816.816,0,0,0-.422-1,.671.671,0,0,0-.6.091.96.96,0,0,0-.388.565l-.421,1.674a.183.183,0,0,0,.119.232l1.424.314a.7.7,0,0,0,.593-.157.978.978,0,0,0,.341-.6Zm-.494-5.277c-2.393-1.366-5.537-.121-7.023,2.782s-.752,6.363,1.64,7.729,5.537.121,7.023-2.782.752-6.364-1.64-7.729Zm-4.863,9.493c-1.929-1.1-2.521-3.892-1.323-6.233s3.735-3.345,5.664-2.244,2.521,3.892,1.323,6.233-3.731,3.342-5.661,2.244Z" transform="translate(-42.484 -26.685)" fill="#ff5d5d"/><path d="M146.669,138.148c-.239,3.21,1.843,5.724,4.649,5.623s5.275-2.781,5.515-5.988-1.843-5.724-4.649-5.623S146.908,134.942,146.669,138.148Zm4.181-1.271a.807.807,0,0,1-.71.771.62.62,0,0,1-.6-.724.807.807,0,0,1,.71-.771.62.62,0,0,1,.6.725Zm3.219.27a.961.961,0,0,0-1.249.044l-.209.206a.23.23,0,0,1-.283.046.265.265,0,0,1-.1-.285,1.44,1.44,0,0,1,1.3-1.028,1.1,1.1,0,0,1,1.152.942.329.329,0,0,1-.147.294.215.215,0,0,1-.278-.026Zm-4.289,2.519a2.027,2.027,0,0,0,1.775.922,2.612,2.612,0,0,0,1.922-1.054.309.309,0,0,1,.466-.064.407.407,0,0,1,0,.527,3.324,3.324,0,0,1-2.445,1.342,2.579,2.579,0,0,1-2.258-1.174.427.427,0,0,1,.091-.514.294.294,0,0,1,.448.021Z" transform="translate(0 -41.552)" fill="lime"/></g></g></g></svg>