<svg xmlns="http://www.w3.org/2000/svg" xmlns:xlink="http://www.w3.org/1999/xlink" width="300" height="150" viewBox="0 0 300 150"><defs><filter id="a" x="118.389" y="51.727" width="118.356" height="93.521" filterUnits="userSpaceOnUse"><feOffset dx="-15" dy="8" input="SourceAlpha"/><feGaussianBlur stdDeviation="2.5" result="b"/><feFlood flood-opacity="0.22"/><feComposite operator="in" in2="b"/><feComposite in="SourceGraphic"/></filter><filter id="c" x="122.382" y="17.597" width="136.546" height="89.73" filterUnits="userSpaceOnUse"><feOffset dx="-15" dy="7" input="SourceAlpha"/><feGaussianBlur stdDeviation="2" result="d"/><feFlood flood-opacity="0.329"/><feComposite operator="in" in2="d"/><feComposite in="SourceGraphic"/></filter><filter id="e" x="20.071" y="-33.012" width="184.296" height="157.727" filterUnits="userSpaceOnUse"><feOffset dx="-15" dy="13" input="SourceAlpha"/><feGaussianBlur stdDeviation="2" result="f"/><feFlood flood-opacity="0.22"/><feComposite operator="in" in2="f"/><feComposite in="SourceGraphic"/></filter><filter id="g" x="124.431" y="69.732" width="75.642" height="55.572" filterUnits="userSpaceOnUse"><feOffset dx="-6" dy="7" input="SourceAlpha"/><feGaussianBlur stdDeviation="2.5" result="h"/><feFlood flood-opacity="0.239"/><feComposite operator="in" in2="h"/><feComposite in="SourceGraphic"/></filter><linearGradient id="i" x1="0.307" y1="0.048" x2="0.74" y2="0.932" gradientUnits="objectBoundingBox"><stop offset="0" stop-color="#6a39ff"/><stop offset="1" stop-color="#ae65ff"/></linearGradient><filter id="j" x="145.37" y="78.891" width="29.225" height="31.224" filterUnits="userSpaceOnUse"><feOffset dx="-2" dy="5" input="SourceAlpha"/><feGaussianBlur stdDeviation="1" result="k"/><feFlood flood-opacity="0.259"/><feComposite operator="in" in2="k"/><feComposite in="SourceGraphic"/></filter><filter id="l" x="96.054" y="90.879" width="73.095" height="59.378" filterUnits="userSpaceOnUse"><feOffset dx="-6" dy="9" input="SourceAlpha"/><feGaussianBlur stdDeviation="3" result="m"/><feFlood flood-opacity="0.231"/><feComposite operator="in" in2="m"/><feComposite in="SourceGraphic"/></filter><linearGradient id="n" x1="0.243" y1="0.023" x2="0.789" y2="0.933" gradientUnits="objectBoundingBox"><stop offset="0" stop-color="#e939e5"/><stop offset="1" stop-color="#fa638d"/></linearGradient><filter id="o" x="113.985" y="103.727" width="26.737" height="28.737" filterUnits="userSpaceOnUse"><feOffset dx="-2" dy="5" input="SourceAlpha"/><feGaussianBlur stdDeviation="1" result="p"/><feFlood flood-opacity="0.22"/><feComposite operator="in" in2="p"/><feComposite in="SourceGraphic"/></filter><clipPath id="r"><rect width="300" height="150"/></clipPath></defs><g id="q" clip-path="url(#r)"><rect width="300" height="150" fill="#fff"/><rect width="300" height="150" fill="#53bff8"/><g transform="translate(-26.609 66)"><g transform="translate(167.498 -14.273)"><g transform="matrix(1, 0, 0, 1, -140.89, -51.73)" filter="url(#a)"><path d="M54.273,6.245,119.206,40.77a8.313,8.313,0,0,1,3.442,11.252L108.371,78.873a8.313,8.313,0,0,1-11.252,3.44L32.185,47.788a8.313,8.313,0,0,1-3.44-11.252L43.022,9.685a8.313,8.313,0,0,1,11.252-3.44Z" transform="translate(113.12 46.46)" fill="#fdbe31"/></g><path d="M6.435,3l-.515.968a.2.2,0,0,1-.088.087.21.21,0,0,1-.222-.022.2.2,0,0,1-.07-.1l-.126-.414-2.82.862a.205.205,0,0,1-.255-.136l-.08-.262A.205.205,0,0,1,2.4,3.727l2.82-.865-.126-.414a.2.2,0,0,1,0-.123.21.21,0,0,1,.171-.141.2.2,0,0,1,.122.023l.968.515A.205.205,0,0,1,6.435,3ZM4.164,4.188l-.185.056a.206.206,0,0,0-.121.1L3.277,5.436.857,4.148,2.144,1.726l2,1.064A.206.206,0,0,0,4.3,2.8l.185-.056a.2.2,0,0,0,.1-.07.21.21,0,0,0,.021-.222.2.2,0,0,0-.087-.088L2.28,1.18a.411.411,0,0,0-.556.17L.309,4.012a.411.411,0,0,0,.17.556L3.141,5.984a.411.411,0,0,0,.556-.17l.709-1.335a.2.2,0,0,0,.023-.122.21.21,0,0,0-.143-.17A.2.2,0,0,0,4.164,4.188Z" transform="translate(83.415 40.672)" fill="#fff"/></g><g transform="translate(169.992 -48.403)"><g transform="matrix(1, 0, 0, 1, -143.38, -17.6)" filter="url(#c)"><path d="M41.742,2.732l90.651,17.621a8.313,8.313,0,0,1,6.578,9.755l-8.253,42.467a8.313,8.313,0,0,1-9.754,6.579L30.311,61.531a8.313,8.313,0,0,1-6.579-9.753L31.987,9.311a8.313,8.313,0,0,1,9.755-6.579Z" transform="translate(119.8 15.02)" fill="#34e0e0"/></g><path d="M6.14,1.756,5.915,2.915a.218.218,0,0,1-.063.118.226.226,0,0,1-.234.047A.218.218,0,0,1,5.514,3l-.261-.386L2.619,4.389a.222.222,0,0,1-.307-.06l-.167-.245a.222.222,0,0,1,.06-.307L4.84,2,4.58,1.611a.218.218,0,0,1-.038-.127.226.226,0,0,1,.132-.2.218.218,0,0,1,.132-.014l1.159.225a.222.222,0,0,1,.175.26ZM4.176,3.694,4,3.81a.222.222,0,0,0-.093.141L3.653,5.26l-2.9-.566.563-2.9,2.391.465a.222.222,0,0,0,.167-.034l.173-.117a.219.219,0,0,0,.083-.1.226.226,0,0,0-.048-.234.219.219,0,0,0-.117-.063L1.284,1.189a.445.445,0,0,0-.519.35L.146,4.728a.445.445,0,0,0,.35.519l3.189.62a.445.445,0,0,0,.519-.35l.31-1.6A.219.219,0,0,0,4.5,3.788a.226.226,0,0,0-.2-.132.219.219,0,0,0-.126.037Z" transform="translate(103.947 24.841)" fill="#fff"/></g><g transform="translate(67.681 -99.012)"><g transform="matrix(1, 0, 0, 1, -41.07, 33.01)" filter="url(#e)"><path d="M71.355,6.589,185.606,72.552a8.313,8.313,0,0,1,3.046,11.365l-32.4,56.12a8.313,8.313,0,0,1-11.365,3.045L30.635,77.12a8.313,8.313,0,0,1-3.045-11.365l32.4-56.12A8.313,8.313,0,0,1,71.355,6.589Z" transform="translate(14.6 -38.48)" fill="#d9219a"/></g><path d="M9.518,4.618,8.713,6.011a.3.3,0,0,1-.133.123.308.308,0,0,1-.323-.043.3.3,0,0,1-.1-.153l-.167-.612L3.812,6.446a.3.3,0,0,1-.37-.214l-.1-.389a.3.3,0,0,1,.214-.37L7.734,4.352l-.167-.612a.3.3,0,0,1,.007-.181.308.308,0,0,1,.258-.2.3.3,0,0,1,.177.04l1.4.8a.3.3,0,0,1,.111.412ZM6.126,6.242l-.275.073a.3.3,0,0,0-.183.141L4.761,8.027,1.276,6.017,3.291,2.531l2.875,1.66a.3.3,0,0,0,.229.03l.275-.073a.3.3,0,0,0,.153-.1.307.307,0,0,0,.042-.323.3.3,0,0,0-.123-.133L3.516,1.736a.6.6,0,0,0-.825.222L.479,5.788A.6.6,0,0,0,.7,6.612L4.534,8.825A.6.6,0,0,0,5.358,8.6L6.465,6.684a.3.3,0,0,0,.04-.177.307.307,0,0,0-.2-.258A.3.3,0,0,0,6.126,6.242Z" transform="translate(144.044 72.304)" fill="#fff"/></g><g transform="translate(164.54 4.232)"><g transform="matrix(1, 0, 0, 1, -137.93, -70.23)" filter="url(#g)"><path d="M20.5,4.513,66.144,1.322a6.65,6.65,0,0,1,7.1,6.175L74.93,31.565a6.65,6.65,0,0,1-6.175,7.1L23.108,41.86A6.65,6.65,0,0,1,16,35.686L14.322,11.618a6.65,6.65,0,0,1,6.175-7.1Z" transform="translate(123.63 68.93)" fill="#fff"/></g><g transform="translate(12.439 8.659)"><g transform="matrix(1, 0, 0, 1, -150.37, -78.89)" filter="url(#j)"><path d="M17.263,1.439A11.611,11.611,0,1,1,12.8,2.668a11.611,11.611,0,0,1,4.459-1.229Z" transform="translate(143.93 77.48)" fill="url(#i)"/></g><path d="M6.938,2.272,5.314.859,0,1.23.69,11.1l12.145-.849L12.251,1.9ZM6.683,9.536,3.841,7.064l1.9-.133L5.526,3.9l1.518-.106.212,3.036,1.9-.133Z" transform="translate(5.058 6.178)" fill="#fff"/></g></g><g transform="translate(137.663 24.879)"><g transform="matrix(1, 0, 0, 1, -111.05, -90.88)" filter="url(#l)"><path d="M22.544,11.165l37.29-8.609a6.65,6.65,0,0,1,7.983,4.988L72.308,27a6.65,6.65,0,0,1-4.988,7.983L30.03,43.591A6.65,6.65,0,0,1,22.047,38.6L17.556,19.147a6.65,6.65,0,0,1,4.988-7.983Z" transform="translate(93.67 88.49)" fill="#fff"/></g><g transform="matrix(1, 0, 0, 1, -111.05, -90.88)" filter="url(#o)"><path d="M16.8,4A10.367,10.367,0,1,1,13.036,5.7,10.367,10.367,0,0,1,16.8,4Z" transform="translate(110.24 100)" fill="url(#n)"/></g><path d="M9.485.408,1.208,2.319a1.046,1.046,0,0,0-.382.174,1.063,1.063,0,0,0-.409,1.1L1.845,9.8a1.052,1.052,0,0,0,.175.383,1.072,1.072,0,0,0,.678.424,1.052,1.052,0,0,0,.42-.011L11.4,8.685a1.052,1.052,0,0,0,.383-.175,1.072,1.072,0,0,0,.424-.678,1.052,1.052,0,0,0-.011-.42L10.758,1.2a1.052,1.052,0,0,0-.175-.383A1.072,1.072,0,0,0,9.9.4a1.052,1.052,0,0,0-.419.011ZM8.569,8.248,2.88,9.561,2.4,7.492l5.69-1.314Zm-.6-2.587L2.283,6.975,1.805,4.906,7.5,3.592Zm3.183,1.99-2.069.478L8.013,3.472l2.069-.478Z" transform="translate(12.058 17.477)" fill="#fff"/></g></g></g></svg>